G04 (created by PCBNEW (2013-jul-07)-stable) date Fr 13 Feb 2015 15:01:28 CET*
%MOIN*%
G04 Gerber Fmt 3.4, Leading zero omitted, Abs format*
%FSLAX34Y34*%
G01*
G70*
G90*
G04 APERTURE LIST*
%ADD10C,0.00590551*%
G04 APERTURE END LIST*
G54D10*
X82500Y-41000D02*
X84783Y-41000D01*
X84783Y-41000D02*
X84783Y-46748D01*
X84783Y-46511D02*
X80216Y-46511D01*
X80216Y-46511D02*
X80216Y-41000D01*
X80216Y-41000D02*
X82460Y-41000D01*
X82500Y-41000D02*
X81476Y-41000D01*
X81476Y-41000D02*
X81476Y-39818D01*
X81476Y-39818D02*
X83523Y-39818D01*
X83523Y-39818D02*
X83523Y-41000D01*
X83523Y-41000D02*
X82500Y-41000D01*
X77000Y-41000D02*
X79283Y-41000D01*
X79283Y-41000D02*
X79283Y-46748D01*
X79283Y-46511D02*
X74716Y-46511D01*
X74716Y-46511D02*
X74716Y-41000D01*
X74716Y-41000D02*
X76960Y-41000D01*
X77000Y-41000D02*
X75976Y-41000D01*
X75976Y-41000D02*
X75976Y-39818D01*
X75976Y-39818D02*
X78023Y-39818D01*
X78023Y-39818D02*
X78023Y-41000D01*
X78023Y-41000D02*
X77000Y-41000D01*
X71500Y-41000D02*
X73783Y-41000D01*
X73783Y-41000D02*
X73783Y-46748D01*
X73783Y-46511D02*
X69216Y-46511D01*
X69216Y-46511D02*
X69216Y-41000D01*
X69216Y-41000D02*
X71460Y-41000D01*
X71500Y-41000D02*
X70476Y-41000D01*
X70476Y-41000D02*
X70476Y-39818D01*
X70476Y-39818D02*
X72523Y-39818D01*
X72523Y-39818D02*
X72523Y-41000D01*
X72523Y-41000D02*
X71500Y-41000D01*
X66000Y-41000D02*
X68283Y-41000D01*
X68283Y-41000D02*
X68283Y-46748D01*
X68283Y-46511D02*
X63716Y-46511D01*
X63716Y-46511D02*
X63716Y-41000D01*
X63716Y-41000D02*
X65960Y-41000D01*
X66000Y-41000D02*
X64976Y-41000D01*
X64976Y-41000D02*
X64976Y-39818D01*
X64976Y-39818D02*
X67023Y-39818D01*
X67023Y-39818D02*
X67023Y-41000D01*
X67023Y-41000D02*
X66000Y-41000D01*
X60500Y-41000D02*
X62783Y-41000D01*
X62783Y-41000D02*
X62783Y-46748D01*
X62783Y-46511D02*
X58216Y-46511D01*
X58216Y-46511D02*
X58216Y-41000D01*
X58216Y-41000D02*
X60460Y-41000D01*
X60500Y-41000D02*
X59476Y-41000D01*
X59476Y-41000D02*
X59476Y-39818D01*
X59476Y-39818D02*
X61523Y-39818D01*
X61523Y-39818D02*
X61523Y-41000D01*
X61523Y-41000D02*
X60500Y-41000D01*
X56000Y-63000D02*
X56000Y-60716D01*
X56000Y-60716D02*
X61748Y-60716D01*
X61511Y-60716D02*
X61511Y-65283D01*
X61511Y-65283D02*
X56000Y-65283D01*
X56000Y-65283D02*
X56000Y-63039D01*
X56000Y-63000D02*
X56000Y-64023D01*
X56000Y-64023D02*
X54818Y-64023D01*
X54818Y-64023D02*
X54818Y-61976D01*
X54818Y-61976D02*
X56000Y-61976D01*
X56000Y-61976D02*
X56000Y-63000D01*
X56000Y-74500D02*
X56000Y-72216D01*
X56000Y-72216D02*
X61748Y-72216D01*
X61511Y-72216D02*
X61511Y-76783D01*
X61511Y-76783D02*
X56000Y-76783D01*
X56000Y-76783D02*
X56000Y-74539D01*
X56000Y-74500D02*
X56000Y-75523D01*
X56000Y-75523D02*
X54818Y-75523D01*
X54818Y-75523D02*
X54818Y-73476D01*
X54818Y-73476D02*
X56000Y-73476D01*
X56000Y-73476D02*
X56000Y-74500D01*
X65000Y-96500D02*
X62716Y-96500D01*
X62716Y-96500D02*
X62716Y-90751D01*
X62716Y-90988D02*
X67283Y-90988D01*
X67283Y-90988D02*
X67283Y-96500D01*
X67283Y-96500D02*
X65039Y-96500D01*
X65000Y-96500D02*
X66023Y-96500D01*
X66023Y-96500D02*
X66023Y-97681D01*
X66023Y-97681D02*
X63976Y-97681D01*
X63976Y-97681D02*
X63976Y-96500D01*
X63976Y-96500D02*
X65000Y-96500D01*
X70500Y-96500D02*
X68216Y-96500D01*
X68216Y-96500D02*
X68216Y-90751D01*
X68216Y-90988D02*
X72783Y-90988D01*
X72783Y-90988D02*
X72783Y-96500D01*
X72783Y-96500D02*
X70539Y-96500D01*
X70500Y-96500D02*
X71523Y-96500D01*
X71523Y-96500D02*
X71523Y-97681D01*
X71523Y-97681D02*
X69476Y-97681D01*
X69476Y-97681D02*
X69476Y-96500D01*
X69476Y-96500D02*
X70500Y-96500D01*
X81500Y-96500D02*
X79216Y-96500D01*
X79216Y-96500D02*
X79216Y-90751D01*
X79216Y-90988D02*
X83783Y-90988D01*
X83783Y-90988D02*
X83783Y-96500D01*
X83783Y-96500D02*
X81539Y-96500D01*
X81500Y-96500D02*
X82523Y-96500D01*
X82523Y-96500D02*
X82523Y-97681D01*
X82523Y-97681D02*
X80476Y-97681D01*
X80476Y-97681D02*
X80476Y-96500D01*
X80476Y-96500D02*
X81500Y-96500D01*
X76000Y-96500D02*
X73716Y-96500D01*
X73716Y-96500D02*
X73716Y-90751D01*
X73716Y-90988D02*
X78283Y-90988D01*
X78283Y-90988D02*
X78283Y-96500D01*
X78283Y-96500D02*
X76039Y-96500D01*
X76000Y-96500D02*
X77023Y-96500D01*
X77023Y-96500D02*
X77023Y-97681D01*
X77023Y-97681D02*
X74976Y-97681D01*
X74976Y-97681D02*
X74976Y-96500D01*
X74976Y-96500D02*
X76000Y-96500D01*
X87500Y-96500D02*
X85216Y-96500D01*
X85216Y-96500D02*
X85216Y-90751D01*
X85216Y-90988D02*
X89783Y-90988D01*
X89783Y-90988D02*
X89783Y-96500D01*
X89783Y-96500D02*
X87539Y-96500D01*
X87500Y-96500D02*
X88523Y-96500D01*
X88523Y-96500D02*
X88523Y-97681D01*
X88523Y-97681D02*
X86476Y-97681D01*
X86476Y-97681D02*
X86476Y-96500D01*
X86476Y-96500D02*
X87500Y-96500D01*
X89500Y-74000D02*
X89500Y-76283D01*
X89500Y-76283D02*
X83751Y-76283D01*
X83988Y-76283D02*
X83988Y-71716D01*
X83988Y-71716D02*
X89500Y-71716D01*
X89500Y-71716D02*
X89500Y-73960D01*
X89500Y-74000D02*
X89500Y-72976D01*
X89500Y-72976D02*
X90681Y-72976D01*
X90681Y-72976D02*
X90681Y-75023D01*
X90681Y-75023D02*
X89500Y-75023D01*
X89500Y-75023D02*
X89500Y-74000D01*
X82978Y-39159D02*
X82978Y-38765D01*
X82828Y-38765D01*
X82790Y-38784D01*
X82771Y-38803D01*
X82753Y-38840D01*
X82753Y-38896D01*
X82771Y-38934D01*
X82790Y-38953D01*
X82828Y-38971D01*
X82978Y-38971D01*
X82378Y-39159D02*
X82603Y-39159D01*
X82490Y-39159D02*
X82490Y-38765D01*
X82528Y-38821D01*
X82565Y-38859D01*
X82603Y-38878D01*
X82134Y-38765D02*
X82096Y-38765D01*
X82059Y-38784D01*
X82040Y-38803D01*
X82021Y-38840D01*
X82003Y-38915D01*
X82003Y-39009D01*
X82021Y-39084D01*
X82040Y-39121D01*
X82059Y-39140D01*
X82096Y-39159D01*
X82134Y-39159D01*
X82171Y-39140D01*
X82190Y-39121D01*
X82209Y-39084D01*
X82228Y-39009D01*
X82228Y-38915D01*
X82209Y-38840D01*
X82190Y-38803D01*
X82171Y-38784D01*
X82134Y-38765D01*
X83296Y-47159D02*
X83484Y-47159D01*
X83484Y-46765D01*
X83184Y-47046D02*
X82996Y-47046D01*
X83221Y-47159D02*
X83090Y-46765D01*
X82959Y-47159D01*
X82846Y-47140D02*
X82790Y-47159D01*
X82696Y-47159D01*
X82659Y-47140D01*
X82640Y-47121D01*
X82621Y-47084D01*
X82621Y-47046D01*
X82640Y-47009D01*
X82659Y-46990D01*
X82696Y-46971D01*
X82771Y-46953D01*
X82809Y-46934D01*
X82828Y-46915D01*
X82846Y-46878D01*
X82846Y-46840D01*
X82828Y-46803D01*
X82809Y-46784D01*
X82771Y-46765D01*
X82678Y-46765D01*
X82621Y-46784D01*
X82453Y-46953D02*
X82321Y-46953D01*
X82265Y-47159D02*
X82453Y-47159D01*
X82453Y-46765D01*
X82265Y-46765D01*
X81871Y-47159D02*
X82003Y-46971D01*
X82096Y-47159D02*
X82096Y-46765D01*
X81946Y-46765D01*
X81909Y-46784D01*
X81890Y-46803D01*
X81871Y-46840D01*
X81871Y-46896D01*
X81890Y-46934D01*
X81909Y-46953D01*
X81946Y-46971D01*
X82096Y-46971D01*
X81515Y-46765D02*
X81703Y-46765D01*
X81721Y-46953D01*
X81703Y-46934D01*
X81665Y-46915D01*
X81571Y-46915D01*
X81534Y-46934D01*
X81515Y-46953D01*
X81497Y-46990D01*
X81497Y-47084D01*
X81515Y-47121D01*
X81534Y-47140D01*
X81571Y-47159D01*
X81665Y-47159D01*
X81703Y-47140D01*
X81721Y-47121D01*
X77478Y-39159D02*
X77478Y-38765D01*
X77328Y-38765D01*
X77290Y-38784D01*
X77271Y-38803D01*
X77253Y-38840D01*
X77253Y-38896D01*
X77271Y-38934D01*
X77290Y-38953D01*
X77328Y-38971D01*
X77478Y-38971D01*
X76878Y-39159D02*
X77103Y-39159D01*
X76990Y-39159D02*
X76990Y-38765D01*
X77028Y-38821D01*
X77065Y-38859D01*
X77103Y-38878D01*
X76503Y-39159D02*
X76728Y-39159D01*
X76615Y-39159D02*
X76615Y-38765D01*
X76653Y-38821D01*
X76690Y-38859D01*
X76728Y-38878D01*
X77796Y-47159D02*
X77984Y-47159D01*
X77984Y-46765D01*
X77684Y-47046D02*
X77496Y-47046D01*
X77721Y-47159D02*
X77590Y-46765D01*
X77459Y-47159D01*
X77346Y-47140D02*
X77290Y-47159D01*
X77196Y-47159D01*
X77159Y-47140D01*
X77140Y-47121D01*
X77121Y-47084D01*
X77121Y-47046D01*
X77140Y-47009D01*
X77159Y-46990D01*
X77196Y-46971D01*
X77271Y-46953D01*
X77309Y-46934D01*
X77328Y-46915D01*
X77346Y-46878D01*
X77346Y-46840D01*
X77328Y-46803D01*
X77309Y-46784D01*
X77271Y-46765D01*
X77178Y-46765D01*
X77121Y-46784D01*
X76953Y-46953D02*
X76821Y-46953D01*
X76765Y-47159D02*
X76953Y-47159D01*
X76953Y-46765D01*
X76765Y-46765D01*
X76371Y-47159D02*
X76503Y-46971D01*
X76596Y-47159D02*
X76596Y-46765D01*
X76446Y-46765D01*
X76409Y-46784D01*
X76390Y-46803D01*
X76371Y-46840D01*
X76371Y-46896D01*
X76390Y-46934D01*
X76409Y-46953D01*
X76446Y-46971D01*
X76596Y-46971D01*
X76034Y-46896D02*
X76034Y-47159D01*
X76128Y-46746D02*
X76221Y-47028D01*
X75978Y-47028D01*
X71978Y-39159D02*
X71978Y-38765D01*
X71828Y-38765D01*
X71790Y-38784D01*
X71771Y-38803D01*
X71753Y-38840D01*
X71753Y-38896D01*
X71771Y-38934D01*
X71790Y-38953D01*
X71828Y-38971D01*
X71978Y-38971D01*
X71378Y-39159D02*
X71603Y-39159D01*
X71490Y-39159D02*
X71490Y-38765D01*
X71528Y-38821D01*
X71565Y-38859D01*
X71603Y-38878D01*
X71228Y-38803D02*
X71209Y-38784D01*
X71171Y-38765D01*
X71078Y-38765D01*
X71040Y-38784D01*
X71021Y-38803D01*
X71003Y-38840D01*
X71003Y-38878D01*
X71021Y-38934D01*
X71246Y-39159D01*
X71003Y-39159D01*
X72296Y-47159D02*
X72484Y-47159D01*
X72484Y-46765D01*
X72184Y-47046D02*
X71996Y-47046D01*
X72221Y-47159D02*
X72090Y-46765D01*
X71959Y-47159D01*
X71846Y-47140D02*
X71790Y-47159D01*
X71696Y-47159D01*
X71659Y-47140D01*
X71640Y-47121D01*
X71621Y-47084D01*
X71621Y-47046D01*
X71640Y-47009D01*
X71659Y-46990D01*
X71696Y-46971D01*
X71771Y-46953D01*
X71809Y-46934D01*
X71828Y-46915D01*
X71846Y-46878D01*
X71846Y-46840D01*
X71828Y-46803D01*
X71809Y-46784D01*
X71771Y-46765D01*
X71678Y-46765D01*
X71621Y-46784D01*
X71453Y-46953D02*
X71321Y-46953D01*
X71265Y-47159D02*
X71453Y-47159D01*
X71453Y-46765D01*
X71265Y-46765D01*
X70871Y-47159D02*
X71003Y-46971D01*
X71096Y-47159D02*
X71096Y-46765D01*
X70946Y-46765D01*
X70909Y-46784D01*
X70890Y-46803D01*
X70871Y-46840D01*
X70871Y-46896D01*
X70890Y-46934D01*
X70909Y-46953D01*
X70946Y-46971D01*
X71096Y-46971D01*
X70740Y-46765D02*
X70497Y-46765D01*
X70628Y-46915D01*
X70571Y-46915D01*
X70534Y-46934D01*
X70515Y-46953D01*
X70497Y-46990D01*
X70497Y-47084D01*
X70515Y-47121D01*
X70534Y-47140D01*
X70571Y-47159D01*
X70684Y-47159D01*
X70721Y-47140D01*
X70740Y-47121D01*
X66478Y-39159D02*
X66478Y-38765D01*
X66328Y-38765D01*
X66290Y-38784D01*
X66271Y-38803D01*
X66253Y-38840D01*
X66253Y-38896D01*
X66271Y-38934D01*
X66290Y-38953D01*
X66328Y-38971D01*
X66478Y-38971D01*
X65878Y-39159D02*
X66103Y-39159D01*
X65990Y-39159D02*
X65990Y-38765D01*
X66028Y-38821D01*
X66065Y-38859D01*
X66103Y-38878D01*
X65746Y-38765D02*
X65503Y-38765D01*
X65634Y-38915D01*
X65578Y-38915D01*
X65540Y-38934D01*
X65521Y-38953D01*
X65503Y-38990D01*
X65503Y-39084D01*
X65521Y-39121D01*
X65540Y-39140D01*
X65578Y-39159D01*
X65690Y-39159D01*
X65728Y-39140D01*
X65746Y-39121D01*
X66796Y-47159D02*
X66984Y-47159D01*
X66984Y-46765D01*
X66684Y-47046D02*
X66496Y-47046D01*
X66721Y-47159D02*
X66590Y-46765D01*
X66459Y-47159D01*
X66346Y-47140D02*
X66290Y-47159D01*
X66196Y-47159D01*
X66159Y-47140D01*
X66140Y-47121D01*
X66121Y-47084D01*
X66121Y-47046D01*
X66140Y-47009D01*
X66159Y-46990D01*
X66196Y-46971D01*
X66271Y-46953D01*
X66309Y-46934D01*
X66328Y-46915D01*
X66346Y-46878D01*
X66346Y-46840D01*
X66328Y-46803D01*
X66309Y-46784D01*
X66271Y-46765D01*
X66178Y-46765D01*
X66121Y-46784D01*
X65953Y-46953D02*
X65821Y-46953D01*
X65765Y-47159D02*
X65953Y-47159D01*
X65953Y-46765D01*
X65765Y-46765D01*
X65371Y-47159D02*
X65503Y-46971D01*
X65596Y-47159D02*
X65596Y-46765D01*
X65446Y-46765D01*
X65409Y-46784D01*
X65390Y-46803D01*
X65371Y-46840D01*
X65371Y-46896D01*
X65390Y-46934D01*
X65409Y-46953D01*
X65446Y-46971D01*
X65596Y-46971D01*
X65221Y-46803D02*
X65203Y-46784D01*
X65165Y-46765D01*
X65071Y-46765D01*
X65034Y-46784D01*
X65015Y-46803D01*
X64997Y-46840D01*
X64997Y-46878D01*
X65015Y-46934D01*
X65240Y-47159D01*
X64997Y-47159D01*
X60978Y-39159D02*
X60978Y-38765D01*
X60828Y-38765D01*
X60790Y-38784D01*
X60771Y-38803D01*
X60753Y-38840D01*
X60753Y-38896D01*
X60771Y-38934D01*
X60790Y-38953D01*
X60828Y-38971D01*
X60978Y-38971D01*
X60378Y-39159D02*
X60603Y-39159D01*
X60490Y-39159D02*
X60490Y-38765D01*
X60528Y-38821D01*
X60565Y-38859D01*
X60603Y-38878D01*
X60040Y-38896D02*
X60040Y-39159D01*
X60134Y-38746D02*
X60228Y-39028D01*
X59984Y-39028D01*
X61296Y-47159D02*
X61484Y-47159D01*
X61484Y-46765D01*
X61184Y-47046D02*
X60996Y-47046D01*
X61221Y-47159D02*
X61090Y-46765D01*
X60959Y-47159D01*
X60846Y-47140D02*
X60790Y-47159D01*
X60696Y-47159D01*
X60659Y-47140D01*
X60640Y-47121D01*
X60621Y-47084D01*
X60621Y-47046D01*
X60640Y-47009D01*
X60659Y-46990D01*
X60696Y-46971D01*
X60771Y-46953D01*
X60809Y-46934D01*
X60828Y-46915D01*
X60846Y-46878D01*
X60846Y-46840D01*
X60828Y-46803D01*
X60809Y-46784D01*
X60771Y-46765D01*
X60678Y-46765D01*
X60621Y-46784D01*
X60453Y-46953D02*
X60321Y-46953D01*
X60265Y-47159D02*
X60453Y-47159D01*
X60453Y-46765D01*
X60265Y-46765D01*
X59871Y-47159D02*
X60003Y-46971D01*
X60096Y-47159D02*
X60096Y-46765D01*
X59946Y-46765D01*
X59909Y-46784D01*
X59890Y-46803D01*
X59871Y-46840D01*
X59871Y-46896D01*
X59890Y-46934D01*
X59909Y-46953D01*
X59946Y-46971D01*
X60096Y-46971D01*
X59497Y-47159D02*
X59721Y-47159D01*
X59609Y-47159D02*
X59609Y-46765D01*
X59646Y-46821D01*
X59684Y-46859D01*
X59721Y-46878D01*
X54159Y-62709D02*
X53765Y-62709D01*
X53765Y-62859D01*
X53784Y-62896D01*
X53803Y-62915D01*
X53840Y-62934D01*
X53896Y-62934D01*
X53934Y-62915D01*
X53953Y-62896D01*
X53971Y-62859D01*
X53971Y-62709D01*
X54159Y-63121D02*
X54159Y-63196D01*
X54140Y-63234D01*
X54121Y-63253D01*
X54065Y-63290D01*
X53990Y-63309D01*
X53840Y-63309D01*
X53803Y-63290D01*
X53784Y-63271D01*
X53765Y-63234D01*
X53765Y-63159D01*
X53784Y-63121D01*
X53803Y-63103D01*
X53840Y-63084D01*
X53934Y-63084D01*
X53971Y-63103D01*
X53990Y-63121D01*
X54009Y-63159D01*
X54009Y-63234D01*
X53990Y-63271D01*
X53971Y-63290D01*
X53934Y-63309D01*
X62159Y-61547D02*
X62159Y-61359D01*
X61765Y-61359D01*
X62046Y-61659D02*
X62046Y-61847D01*
X62159Y-61622D02*
X61765Y-61753D01*
X62159Y-61884D01*
X62140Y-61997D02*
X62159Y-62053D01*
X62159Y-62146D01*
X62140Y-62184D01*
X62121Y-62203D01*
X62084Y-62221D01*
X62046Y-62221D01*
X62009Y-62203D01*
X61990Y-62184D01*
X61971Y-62146D01*
X61953Y-62071D01*
X61934Y-62034D01*
X61915Y-62015D01*
X61878Y-61997D01*
X61840Y-61997D01*
X61803Y-62015D01*
X61784Y-62034D01*
X61765Y-62071D01*
X61765Y-62165D01*
X61784Y-62221D01*
X61953Y-62390D02*
X61953Y-62521D01*
X62159Y-62578D02*
X62159Y-62390D01*
X61765Y-62390D01*
X61765Y-62578D01*
X62159Y-62971D02*
X61971Y-62840D01*
X62159Y-62746D02*
X61765Y-62746D01*
X61765Y-62896D01*
X61784Y-62934D01*
X61803Y-62953D01*
X61840Y-62971D01*
X61896Y-62971D01*
X61934Y-62953D01*
X61953Y-62934D01*
X61971Y-62896D01*
X61971Y-62746D01*
X61784Y-63646D02*
X61765Y-63609D01*
X61765Y-63553D01*
X61784Y-63496D01*
X61821Y-63459D01*
X61859Y-63440D01*
X61934Y-63421D01*
X61990Y-63421D01*
X62065Y-63440D01*
X62103Y-63459D01*
X62140Y-63496D01*
X62159Y-63553D01*
X62159Y-63590D01*
X62140Y-63646D01*
X62121Y-63665D01*
X61990Y-63665D01*
X61990Y-63590D01*
X62046Y-63815D02*
X62046Y-64003D01*
X62159Y-63778D02*
X61765Y-63909D01*
X62159Y-64040D01*
X61765Y-64115D02*
X61765Y-64340D01*
X62159Y-64227D02*
X61765Y-64227D01*
X61953Y-64471D02*
X61953Y-64602D01*
X62159Y-64659D02*
X62159Y-64471D01*
X61765Y-64471D01*
X61765Y-64659D01*
X54159Y-74209D02*
X53765Y-74209D01*
X53765Y-74359D01*
X53784Y-74396D01*
X53803Y-74415D01*
X53840Y-74434D01*
X53896Y-74434D01*
X53934Y-74415D01*
X53953Y-74396D01*
X53971Y-74359D01*
X53971Y-74209D01*
X53765Y-74771D02*
X53765Y-74696D01*
X53784Y-74659D01*
X53803Y-74640D01*
X53859Y-74603D01*
X53934Y-74584D01*
X54084Y-74584D01*
X54121Y-74603D01*
X54140Y-74621D01*
X54159Y-74659D01*
X54159Y-74734D01*
X54140Y-74771D01*
X54121Y-74790D01*
X54084Y-74809D01*
X53990Y-74809D01*
X53953Y-74790D01*
X53934Y-74771D01*
X53915Y-74734D01*
X53915Y-74659D01*
X53934Y-74621D01*
X53953Y-74603D01*
X53990Y-74584D01*
X62159Y-72297D02*
X61765Y-72297D01*
X61765Y-72390D01*
X61784Y-72447D01*
X61821Y-72484D01*
X61859Y-72503D01*
X61934Y-72522D01*
X61990Y-72522D01*
X62065Y-72503D01*
X62103Y-72484D01*
X62140Y-72447D01*
X62159Y-72390D01*
X62159Y-72297D01*
X61953Y-72690D02*
X61953Y-72822D01*
X62159Y-72878D02*
X62159Y-72690D01*
X61765Y-72690D01*
X61765Y-72878D01*
X61765Y-72990D02*
X61765Y-73215D01*
X62159Y-73103D02*
X61765Y-73103D01*
X61953Y-73347D02*
X61953Y-73478D01*
X62159Y-73534D02*
X62159Y-73347D01*
X61765Y-73347D01*
X61765Y-73534D01*
X62121Y-73928D02*
X62140Y-73909D01*
X62159Y-73853D01*
X62159Y-73815D01*
X62140Y-73759D01*
X62103Y-73721D01*
X62065Y-73703D01*
X61990Y-73684D01*
X61934Y-73684D01*
X61859Y-73703D01*
X61821Y-73721D01*
X61784Y-73759D01*
X61765Y-73815D01*
X61765Y-73853D01*
X61784Y-73909D01*
X61803Y-73928D01*
X61765Y-74040D02*
X61765Y-74265D01*
X62159Y-74153D02*
X61765Y-74153D01*
X61765Y-74471D02*
X61765Y-74546D01*
X61784Y-74584D01*
X61821Y-74621D01*
X61896Y-74640D01*
X62028Y-74640D01*
X62103Y-74621D01*
X62140Y-74584D01*
X62159Y-74546D01*
X62159Y-74471D01*
X62140Y-74434D01*
X62103Y-74396D01*
X62028Y-74378D01*
X61896Y-74378D01*
X61821Y-74396D01*
X61784Y-74434D01*
X61765Y-74471D01*
X62159Y-75034D02*
X61971Y-74903D01*
X62159Y-74809D02*
X61765Y-74809D01*
X61765Y-74959D01*
X61784Y-74996D01*
X61803Y-75015D01*
X61840Y-75034D01*
X61896Y-75034D01*
X61934Y-75015D01*
X61953Y-74996D01*
X61971Y-74959D01*
X61971Y-74809D01*
X61784Y-75709D02*
X61765Y-75671D01*
X61765Y-75615D01*
X61784Y-75559D01*
X61821Y-75521D01*
X61859Y-75502D01*
X61934Y-75484D01*
X61990Y-75484D01*
X62065Y-75502D01*
X62103Y-75521D01*
X62140Y-75559D01*
X62159Y-75615D01*
X62159Y-75652D01*
X62140Y-75709D01*
X62121Y-75727D01*
X61990Y-75727D01*
X61990Y-75652D01*
X62046Y-75877D02*
X62046Y-76065D01*
X62159Y-75840D02*
X61765Y-75971D01*
X62159Y-76102D01*
X61765Y-76177D02*
X61765Y-76402D01*
X62159Y-76290D02*
X61765Y-76290D01*
X61953Y-76534D02*
X61953Y-76665D01*
X62159Y-76721D02*
X62159Y-76534D01*
X61765Y-76534D01*
X61765Y-76721D01*
X65290Y-98659D02*
X65290Y-98265D01*
X65140Y-98265D01*
X65103Y-98284D01*
X65084Y-98303D01*
X65065Y-98340D01*
X65065Y-98396D01*
X65084Y-98434D01*
X65103Y-98453D01*
X65140Y-98471D01*
X65290Y-98471D01*
X64709Y-98265D02*
X64896Y-98265D01*
X64915Y-98453D01*
X64896Y-98434D01*
X64859Y-98415D01*
X64765Y-98415D01*
X64728Y-98434D01*
X64709Y-98453D01*
X64690Y-98490D01*
X64690Y-98584D01*
X64709Y-98621D01*
X64728Y-98640D01*
X64765Y-98659D01*
X64859Y-98659D01*
X64896Y-98640D01*
X64915Y-98621D01*
X66546Y-90659D02*
X66546Y-90265D01*
X66452Y-90265D01*
X66396Y-90284D01*
X66359Y-90321D01*
X66340Y-90359D01*
X66321Y-90434D01*
X66321Y-90490D01*
X66340Y-90565D01*
X66359Y-90603D01*
X66396Y-90640D01*
X66452Y-90659D01*
X66546Y-90659D01*
X66152Y-90453D02*
X66021Y-90453D01*
X65965Y-90659D02*
X66152Y-90659D01*
X66152Y-90265D01*
X65965Y-90265D01*
X65853Y-90265D02*
X65628Y-90265D01*
X65740Y-90659D02*
X65740Y-90265D01*
X65496Y-90453D02*
X65365Y-90453D01*
X65309Y-90659D02*
X65496Y-90659D01*
X65496Y-90265D01*
X65309Y-90265D01*
X64915Y-90621D02*
X64934Y-90640D01*
X64990Y-90659D01*
X65028Y-90659D01*
X65084Y-90640D01*
X65121Y-90603D01*
X65140Y-90565D01*
X65159Y-90490D01*
X65159Y-90434D01*
X65140Y-90359D01*
X65121Y-90321D01*
X65084Y-90284D01*
X65028Y-90265D01*
X64990Y-90265D01*
X64934Y-90284D01*
X64915Y-90303D01*
X64803Y-90265D02*
X64578Y-90265D01*
X64690Y-90659D02*
X64690Y-90265D01*
X64371Y-90265D02*
X64296Y-90265D01*
X64259Y-90284D01*
X64221Y-90321D01*
X64203Y-90396D01*
X64203Y-90528D01*
X64221Y-90603D01*
X64259Y-90640D01*
X64296Y-90659D01*
X64371Y-90659D01*
X64409Y-90640D01*
X64446Y-90603D01*
X64465Y-90528D01*
X64465Y-90396D01*
X64446Y-90321D01*
X64409Y-90284D01*
X64371Y-90265D01*
X63809Y-90659D02*
X63940Y-90471D01*
X64034Y-90659D02*
X64034Y-90265D01*
X63884Y-90265D01*
X63847Y-90284D01*
X63828Y-90303D01*
X63809Y-90340D01*
X63809Y-90396D01*
X63828Y-90434D01*
X63847Y-90453D01*
X63884Y-90471D01*
X64034Y-90471D01*
X63434Y-90659D02*
X63659Y-90659D01*
X63547Y-90659D02*
X63547Y-90265D01*
X63584Y-90321D01*
X63622Y-90359D01*
X63659Y-90378D01*
X70790Y-98659D02*
X70790Y-98265D01*
X70640Y-98265D01*
X70603Y-98284D01*
X70584Y-98303D01*
X70565Y-98340D01*
X70565Y-98396D01*
X70584Y-98434D01*
X70603Y-98453D01*
X70640Y-98471D01*
X70790Y-98471D01*
X70228Y-98396D02*
X70228Y-98659D01*
X70321Y-98246D02*
X70415Y-98528D01*
X70171Y-98528D01*
X72046Y-90659D02*
X72046Y-90265D01*
X71952Y-90265D01*
X71896Y-90284D01*
X71859Y-90321D01*
X71840Y-90359D01*
X71821Y-90434D01*
X71821Y-90490D01*
X71840Y-90565D01*
X71859Y-90603D01*
X71896Y-90640D01*
X71952Y-90659D01*
X72046Y-90659D01*
X71652Y-90453D02*
X71521Y-90453D01*
X71465Y-90659D02*
X71652Y-90659D01*
X71652Y-90265D01*
X71465Y-90265D01*
X71353Y-90265D02*
X71128Y-90265D01*
X71240Y-90659D02*
X71240Y-90265D01*
X70996Y-90453D02*
X70865Y-90453D01*
X70809Y-90659D02*
X70996Y-90659D01*
X70996Y-90265D01*
X70809Y-90265D01*
X70415Y-90621D02*
X70434Y-90640D01*
X70490Y-90659D01*
X70528Y-90659D01*
X70584Y-90640D01*
X70621Y-90603D01*
X70640Y-90565D01*
X70659Y-90490D01*
X70659Y-90434D01*
X70640Y-90359D01*
X70621Y-90321D01*
X70584Y-90284D01*
X70528Y-90265D01*
X70490Y-90265D01*
X70434Y-90284D01*
X70415Y-90303D01*
X70303Y-90265D02*
X70078Y-90265D01*
X70190Y-90659D02*
X70190Y-90265D01*
X69871Y-90265D02*
X69796Y-90265D01*
X69759Y-90284D01*
X69721Y-90321D01*
X69703Y-90396D01*
X69703Y-90528D01*
X69721Y-90603D01*
X69759Y-90640D01*
X69796Y-90659D01*
X69871Y-90659D01*
X69909Y-90640D01*
X69946Y-90603D01*
X69965Y-90528D01*
X69965Y-90396D01*
X69946Y-90321D01*
X69909Y-90284D01*
X69871Y-90265D01*
X69309Y-90659D02*
X69440Y-90471D01*
X69534Y-90659D02*
X69534Y-90265D01*
X69384Y-90265D01*
X69347Y-90284D01*
X69328Y-90303D01*
X69309Y-90340D01*
X69309Y-90396D01*
X69328Y-90434D01*
X69347Y-90453D01*
X69384Y-90471D01*
X69534Y-90471D01*
X69159Y-90303D02*
X69140Y-90284D01*
X69103Y-90265D01*
X69009Y-90265D01*
X68972Y-90284D01*
X68953Y-90303D01*
X68934Y-90340D01*
X68934Y-90378D01*
X68953Y-90434D01*
X69178Y-90659D01*
X68934Y-90659D01*
X81790Y-98659D02*
X81790Y-98265D01*
X81640Y-98265D01*
X81603Y-98284D01*
X81584Y-98303D01*
X81565Y-98340D01*
X81565Y-98396D01*
X81584Y-98434D01*
X81603Y-98453D01*
X81640Y-98471D01*
X81790Y-98471D01*
X81434Y-98265D02*
X81190Y-98265D01*
X81321Y-98415D01*
X81265Y-98415D01*
X81228Y-98434D01*
X81209Y-98453D01*
X81190Y-98490D01*
X81190Y-98584D01*
X81209Y-98621D01*
X81228Y-98640D01*
X81265Y-98659D01*
X81378Y-98659D01*
X81415Y-98640D01*
X81434Y-98621D01*
X83046Y-90659D02*
X83046Y-90265D01*
X82952Y-90265D01*
X82896Y-90284D01*
X82859Y-90321D01*
X82840Y-90359D01*
X82821Y-90434D01*
X82821Y-90490D01*
X82840Y-90565D01*
X82859Y-90603D01*
X82896Y-90640D01*
X82952Y-90659D01*
X83046Y-90659D01*
X82652Y-90453D02*
X82521Y-90453D01*
X82465Y-90659D02*
X82652Y-90659D01*
X82652Y-90265D01*
X82465Y-90265D01*
X82353Y-90265D02*
X82128Y-90265D01*
X82240Y-90659D02*
X82240Y-90265D01*
X81996Y-90453D02*
X81865Y-90453D01*
X81809Y-90659D02*
X81996Y-90659D01*
X81996Y-90265D01*
X81809Y-90265D01*
X81415Y-90621D02*
X81434Y-90640D01*
X81490Y-90659D01*
X81528Y-90659D01*
X81584Y-90640D01*
X81621Y-90603D01*
X81640Y-90565D01*
X81659Y-90490D01*
X81659Y-90434D01*
X81640Y-90359D01*
X81621Y-90321D01*
X81584Y-90284D01*
X81528Y-90265D01*
X81490Y-90265D01*
X81434Y-90284D01*
X81415Y-90303D01*
X81303Y-90265D02*
X81078Y-90265D01*
X81190Y-90659D02*
X81190Y-90265D01*
X80871Y-90265D02*
X80796Y-90265D01*
X80759Y-90284D01*
X80721Y-90321D01*
X80703Y-90396D01*
X80703Y-90528D01*
X80721Y-90603D01*
X80759Y-90640D01*
X80796Y-90659D01*
X80871Y-90659D01*
X80909Y-90640D01*
X80946Y-90603D01*
X80965Y-90528D01*
X80965Y-90396D01*
X80946Y-90321D01*
X80909Y-90284D01*
X80871Y-90265D01*
X80309Y-90659D02*
X80440Y-90471D01*
X80534Y-90659D02*
X80534Y-90265D01*
X80384Y-90265D01*
X80347Y-90284D01*
X80328Y-90303D01*
X80309Y-90340D01*
X80309Y-90396D01*
X80328Y-90434D01*
X80347Y-90453D01*
X80384Y-90471D01*
X80534Y-90471D01*
X80178Y-90265D02*
X79934Y-90265D01*
X80065Y-90415D01*
X80009Y-90415D01*
X79972Y-90434D01*
X79953Y-90453D01*
X79934Y-90490D01*
X79934Y-90584D01*
X79953Y-90621D01*
X79972Y-90640D01*
X80009Y-90659D01*
X80122Y-90659D01*
X80159Y-90640D01*
X80178Y-90621D01*
X76290Y-98659D02*
X76290Y-98265D01*
X76140Y-98265D01*
X76103Y-98284D01*
X76084Y-98303D01*
X76065Y-98340D01*
X76065Y-98396D01*
X76084Y-98434D01*
X76103Y-98453D01*
X76140Y-98471D01*
X76290Y-98471D01*
X75915Y-98303D02*
X75896Y-98284D01*
X75859Y-98265D01*
X75765Y-98265D01*
X75728Y-98284D01*
X75709Y-98303D01*
X75690Y-98340D01*
X75690Y-98378D01*
X75709Y-98434D01*
X75934Y-98659D01*
X75690Y-98659D01*
X77546Y-90659D02*
X77546Y-90265D01*
X77452Y-90265D01*
X77396Y-90284D01*
X77359Y-90321D01*
X77340Y-90359D01*
X77321Y-90434D01*
X77321Y-90490D01*
X77340Y-90565D01*
X77359Y-90603D01*
X77396Y-90640D01*
X77452Y-90659D01*
X77546Y-90659D01*
X77152Y-90453D02*
X77021Y-90453D01*
X76965Y-90659D02*
X77152Y-90659D01*
X77152Y-90265D01*
X76965Y-90265D01*
X76853Y-90265D02*
X76628Y-90265D01*
X76740Y-90659D02*
X76740Y-90265D01*
X76496Y-90453D02*
X76365Y-90453D01*
X76309Y-90659D02*
X76496Y-90659D01*
X76496Y-90265D01*
X76309Y-90265D01*
X75915Y-90621D02*
X75934Y-90640D01*
X75990Y-90659D01*
X76028Y-90659D01*
X76084Y-90640D01*
X76121Y-90603D01*
X76140Y-90565D01*
X76159Y-90490D01*
X76159Y-90434D01*
X76140Y-90359D01*
X76121Y-90321D01*
X76084Y-90284D01*
X76028Y-90265D01*
X75990Y-90265D01*
X75934Y-90284D01*
X75915Y-90303D01*
X75803Y-90265D02*
X75578Y-90265D01*
X75690Y-90659D02*
X75690Y-90265D01*
X75371Y-90265D02*
X75296Y-90265D01*
X75259Y-90284D01*
X75221Y-90321D01*
X75203Y-90396D01*
X75203Y-90528D01*
X75221Y-90603D01*
X75259Y-90640D01*
X75296Y-90659D01*
X75371Y-90659D01*
X75409Y-90640D01*
X75446Y-90603D01*
X75465Y-90528D01*
X75465Y-90396D01*
X75446Y-90321D01*
X75409Y-90284D01*
X75371Y-90265D01*
X74809Y-90659D02*
X74940Y-90471D01*
X75034Y-90659D02*
X75034Y-90265D01*
X74884Y-90265D01*
X74847Y-90284D01*
X74828Y-90303D01*
X74809Y-90340D01*
X74809Y-90396D01*
X74828Y-90434D01*
X74847Y-90453D01*
X74884Y-90471D01*
X75034Y-90471D01*
X74472Y-90396D02*
X74472Y-90659D01*
X74565Y-90246D02*
X74659Y-90528D01*
X74415Y-90528D01*
X87790Y-98659D02*
X87790Y-98265D01*
X87640Y-98265D01*
X87603Y-98284D01*
X87584Y-98303D01*
X87565Y-98340D01*
X87565Y-98396D01*
X87584Y-98434D01*
X87603Y-98453D01*
X87640Y-98471D01*
X87790Y-98471D01*
X87190Y-98659D02*
X87415Y-98659D01*
X87303Y-98659D02*
X87303Y-98265D01*
X87340Y-98321D01*
X87378Y-98359D01*
X87415Y-98378D01*
X89046Y-90659D02*
X89046Y-90265D01*
X88952Y-90265D01*
X88896Y-90284D01*
X88859Y-90321D01*
X88840Y-90359D01*
X88821Y-90434D01*
X88821Y-90490D01*
X88840Y-90565D01*
X88859Y-90603D01*
X88896Y-90640D01*
X88952Y-90659D01*
X89046Y-90659D01*
X88652Y-90453D02*
X88521Y-90453D01*
X88465Y-90659D02*
X88652Y-90659D01*
X88652Y-90265D01*
X88465Y-90265D01*
X88353Y-90265D02*
X88128Y-90265D01*
X88240Y-90659D02*
X88240Y-90265D01*
X87996Y-90453D02*
X87865Y-90453D01*
X87809Y-90659D02*
X87996Y-90659D01*
X87996Y-90265D01*
X87809Y-90265D01*
X87415Y-90621D02*
X87434Y-90640D01*
X87490Y-90659D01*
X87528Y-90659D01*
X87584Y-90640D01*
X87621Y-90603D01*
X87640Y-90565D01*
X87659Y-90490D01*
X87659Y-90434D01*
X87640Y-90359D01*
X87621Y-90321D01*
X87584Y-90284D01*
X87528Y-90265D01*
X87490Y-90265D01*
X87434Y-90284D01*
X87415Y-90303D01*
X87303Y-90265D02*
X87078Y-90265D01*
X87190Y-90659D02*
X87190Y-90265D01*
X86871Y-90265D02*
X86796Y-90265D01*
X86759Y-90284D01*
X86721Y-90321D01*
X86703Y-90396D01*
X86703Y-90528D01*
X86721Y-90603D01*
X86759Y-90640D01*
X86796Y-90659D01*
X86871Y-90659D01*
X86909Y-90640D01*
X86946Y-90603D01*
X86965Y-90528D01*
X86965Y-90396D01*
X86946Y-90321D01*
X86909Y-90284D01*
X86871Y-90265D01*
X86309Y-90659D02*
X86440Y-90471D01*
X86534Y-90659D02*
X86534Y-90265D01*
X86384Y-90265D01*
X86347Y-90284D01*
X86328Y-90303D01*
X86309Y-90340D01*
X86309Y-90396D01*
X86328Y-90434D01*
X86347Y-90453D01*
X86384Y-90471D01*
X86534Y-90471D01*
X85953Y-90265D02*
X86140Y-90265D01*
X86159Y-90453D01*
X86140Y-90434D01*
X86103Y-90415D01*
X86009Y-90415D01*
X85972Y-90434D01*
X85953Y-90453D01*
X85934Y-90490D01*
X85934Y-90584D01*
X85953Y-90621D01*
X85972Y-90640D01*
X86009Y-90659D01*
X86103Y-90659D01*
X86140Y-90640D01*
X86159Y-90621D01*
X91659Y-73709D02*
X91265Y-73709D01*
X91265Y-73859D01*
X91284Y-73896D01*
X91303Y-73915D01*
X91340Y-73934D01*
X91396Y-73934D01*
X91434Y-73915D01*
X91453Y-73896D01*
X91471Y-73859D01*
X91471Y-73709D01*
X91434Y-74159D02*
X91415Y-74121D01*
X91396Y-74103D01*
X91359Y-74084D01*
X91340Y-74084D01*
X91303Y-74103D01*
X91284Y-74121D01*
X91265Y-74159D01*
X91265Y-74234D01*
X91284Y-74271D01*
X91303Y-74290D01*
X91340Y-74309D01*
X91359Y-74309D01*
X91396Y-74290D01*
X91415Y-74271D01*
X91434Y-74234D01*
X91434Y-74159D01*
X91453Y-74121D01*
X91471Y-74103D01*
X91509Y-74084D01*
X91584Y-74084D01*
X91621Y-74103D01*
X91640Y-74121D01*
X91659Y-74159D01*
X91659Y-74234D01*
X91640Y-74271D01*
X91621Y-74290D01*
X91584Y-74309D01*
X91509Y-74309D01*
X91471Y-74290D01*
X91453Y-74271D01*
X91434Y-74234D01*
X83659Y-73240D02*
X83265Y-73240D01*
X83265Y-73390D01*
X83284Y-73428D01*
X83303Y-73446D01*
X83340Y-73465D01*
X83396Y-73465D01*
X83434Y-73446D01*
X83453Y-73428D01*
X83471Y-73390D01*
X83471Y-73240D01*
X83659Y-73859D02*
X83471Y-73728D01*
X83659Y-73634D02*
X83265Y-73634D01*
X83265Y-73784D01*
X83284Y-73821D01*
X83303Y-73840D01*
X83340Y-73859D01*
X83396Y-73859D01*
X83434Y-73840D01*
X83453Y-73821D01*
X83471Y-73784D01*
X83471Y-73634D01*
X83659Y-74028D02*
X83265Y-74028D01*
X83265Y-74178D02*
X83265Y-74440D01*
X83659Y-74178D01*
X83659Y-74440D01*
X83453Y-74590D02*
X83453Y-74721D01*
X83659Y-74778D02*
X83659Y-74590D01*
X83265Y-74590D01*
X83265Y-74778D01*
M02*
