G04 (created by PCBNEW (2013-jul-07)-stable) date Fr 13 Feb 2015 15:01:28 CET*
%MOIN*%
G04 Gerber Fmt 3.4, Leading zero omitted, Abs format*
%FSLAX34Y34*%
G01*
G70*
G90*
G04 APERTURE LIST*
%ADD10C,0.00590551*%
%ADD11R,0.055X0.055*%
%ADD12C,0.055*%
%ADD13C,0.06*%
%ADD14C,0.066*%
%ADD15O,0.0590551X0.11811*%
%ADD16O,0.11811X0.0590551*%
%ADD17O,0.06X0.1*%
%ADD18C,0.035*%
%ADD19C,0.01*%
G04 APERTURE END LIST*
G54D10*
G54D11*
X73000Y-67000D03*
G54D12*
X73000Y-68000D03*
X74000Y-68000D03*
G54D11*
X64000Y-53500D03*
G54D12*
X63000Y-53500D03*
X63000Y-54500D03*
G54D11*
X69000Y-53500D03*
G54D12*
X68000Y-53500D03*
X68000Y-54500D03*
G54D11*
X74500Y-53500D03*
G54D12*
X73500Y-53500D03*
X73500Y-54500D03*
G54D11*
X80500Y-53500D03*
G54D12*
X79500Y-53500D03*
X79500Y-54500D03*
G54D11*
X86000Y-53500D03*
G54D12*
X85000Y-53500D03*
X85000Y-54500D03*
G54D13*
X66000Y-57000D03*
X66000Y-53000D03*
X65000Y-89500D03*
X65000Y-85500D03*
X74000Y-73000D03*
X74000Y-77000D03*
X82000Y-74000D03*
X78000Y-74000D03*
X76000Y-70000D03*
X72000Y-70000D03*
X61000Y-57000D03*
X61000Y-53000D03*
X80000Y-89500D03*
X80000Y-85500D03*
X71500Y-57000D03*
X71500Y-53000D03*
X77500Y-57000D03*
X77500Y-53000D03*
X83000Y-57000D03*
X83000Y-53000D03*
X74000Y-65000D03*
X70000Y-65000D03*
X84500Y-47500D03*
X84500Y-51500D03*
X79000Y-47500D03*
X79000Y-51500D03*
X73500Y-47500D03*
X73500Y-51500D03*
X68000Y-47500D03*
X68000Y-51500D03*
X62500Y-47500D03*
X62500Y-51500D03*
X67000Y-68500D03*
X71000Y-68500D03*
X75500Y-89500D03*
X75500Y-85500D03*
X70500Y-89500D03*
X70500Y-85500D03*
X87500Y-89500D03*
X87500Y-85500D03*
G54D14*
X65000Y-60000D03*
X66000Y-60000D03*
G54D15*
X84468Y-44937D03*
X80531Y-43165D03*
X83523Y-44267D03*
G54D16*
X82500Y-41590D03*
X80877Y-46039D03*
G54D15*
X78968Y-44937D03*
X75031Y-43165D03*
X78023Y-44267D03*
G54D16*
X77000Y-41590D03*
X75377Y-46039D03*
G54D15*
X73468Y-44937D03*
X69531Y-43165D03*
X72523Y-44267D03*
G54D16*
X71500Y-41590D03*
X69877Y-46039D03*
G54D15*
X67968Y-44937D03*
X64031Y-43165D03*
X67023Y-44267D03*
G54D16*
X66000Y-41590D03*
X64377Y-46039D03*
G54D15*
X62468Y-44937D03*
X58531Y-43165D03*
X61523Y-44267D03*
G54D16*
X60500Y-41590D03*
X58877Y-46039D03*
X59937Y-61031D03*
X58165Y-64968D03*
X59267Y-61976D03*
G54D15*
X56590Y-63000D03*
X61039Y-64622D03*
G54D16*
X59937Y-72531D03*
X58165Y-76468D03*
X59267Y-73476D03*
G54D15*
X56590Y-74500D03*
X61039Y-76122D03*
X63031Y-92562D03*
X66968Y-94334D03*
X63976Y-93232D03*
G54D16*
X65000Y-95909D03*
X66622Y-91460D03*
G54D15*
X68531Y-92562D03*
X72468Y-94334D03*
X69476Y-93232D03*
G54D16*
X70500Y-95909D03*
X72122Y-91460D03*
G54D15*
X79531Y-92562D03*
X83468Y-94334D03*
X80476Y-93232D03*
G54D16*
X81500Y-95909D03*
X83122Y-91460D03*
G54D15*
X74031Y-92562D03*
X77968Y-94334D03*
X74976Y-93232D03*
G54D16*
X76000Y-95909D03*
X77622Y-91460D03*
G54D15*
X85531Y-92562D03*
X89468Y-94334D03*
X86476Y-93232D03*
G54D16*
X87500Y-95909D03*
X89122Y-91460D03*
X85562Y-75968D03*
X87334Y-72031D03*
X86232Y-75023D03*
G54D15*
X88909Y-74000D03*
X84460Y-72377D03*
G54D17*
X86000Y-82000D03*
X85000Y-82000D03*
X84000Y-82000D03*
X81000Y-82000D03*
X82000Y-82000D03*
X83000Y-82000D03*
X79000Y-82000D03*
X78000Y-82000D03*
X77000Y-82000D03*
X75000Y-82000D03*
X74000Y-82000D03*
X86000Y-63000D03*
X85000Y-63000D03*
X84000Y-63000D03*
X83000Y-63000D03*
X82000Y-63000D03*
X81000Y-63000D03*
X80000Y-63000D03*
X79000Y-63000D03*
X77400Y-63000D03*
X76400Y-63000D03*
X75400Y-63000D03*
X74400Y-63000D03*
X73400Y-63000D03*
X72400Y-63000D03*
X71400Y-63000D03*
X70400Y-63000D03*
X76000Y-82000D03*
G54D18*
X66500Y-73500D03*
X83000Y-84500D03*
X77000Y-89500D03*
X72500Y-60500D03*
X74500Y-84500D03*
X70500Y-84000D03*
X80500Y-84000D03*
X77000Y-76500D03*
X77500Y-84000D03*
X73000Y-58500D03*
G54D19*
X71400Y-63000D02*
X71500Y-63000D01*
X71500Y-63000D02*
X71500Y-64000D01*
X71500Y-64000D02*
X72500Y-65000D01*
X72500Y-65000D02*
X74000Y-65000D01*
X80000Y-85500D02*
X87500Y-85500D01*
X74000Y-73000D02*
X75000Y-74000D01*
X75000Y-74000D02*
X78000Y-74000D01*
X79500Y-54500D02*
X73500Y-54500D01*
X79500Y-54500D02*
X85000Y-54500D01*
X70500Y-85500D02*
X65000Y-85500D01*
X73500Y-54500D02*
X68000Y-54500D01*
X75500Y-85500D02*
X70500Y-85500D01*
X68000Y-54500D02*
X63000Y-54500D01*
X75500Y-85500D02*
X80000Y-85500D01*
X78000Y-82000D02*
X77000Y-82000D01*
X66500Y-73500D02*
X69500Y-76500D01*
X69500Y-76500D02*
X72000Y-76500D01*
X72000Y-76500D02*
X76500Y-81000D01*
X76500Y-81000D02*
X78500Y-81000D01*
X78500Y-81000D02*
X78500Y-81500D01*
X78500Y-81500D02*
X79000Y-82000D01*
X64031Y-43165D02*
X64000Y-43000D01*
X64000Y-43000D02*
X69500Y-43000D01*
X69500Y-43000D02*
X69531Y-43165D01*
X69531Y-43165D02*
X69500Y-43000D01*
X69500Y-43000D02*
X75000Y-43000D01*
X75000Y-43000D02*
X75031Y-43165D01*
X58531Y-43165D02*
X58500Y-43000D01*
X58500Y-43000D02*
X64000Y-43000D01*
X64000Y-43000D02*
X64031Y-43165D01*
X75031Y-43165D02*
X75000Y-43000D01*
X75000Y-43000D02*
X80500Y-43000D01*
X80500Y-43000D02*
X80531Y-43165D01*
X64031Y-43165D02*
X64000Y-43000D01*
X69500Y-43000D02*
X69531Y-43165D01*
X69531Y-43165D02*
X69500Y-43000D01*
X75000Y-43000D02*
X75031Y-43165D01*
X75031Y-43165D02*
X75000Y-43000D01*
X64000Y-43000D02*
X64031Y-43165D01*
X74000Y-77000D02*
X69500Y-72500D01*
X69500Y-72500D02*
X60000Y-72500D01*
X60000Y-72500D02*
X59937Y-72531D01*
X81000Y-82000D02*
X76000Y-77000D01*
X76000Y-77000D02*
X74000Y-77000D01*
X59937Y-72531D02*
X60000Y-72500D01*
X60000Y-72500D02*
X59500Y-73000D01*
X59500Y-73000D02*
X58500Y-73000D01*
X58500Y-73000D02*
X57000Y-74500D01*
X57000Y-74500D02*
X56590Y-74500D01*
X60000Y-72500D02*
X59937Y-72531D01*
X59937Y-72531D02*
X60000Y-72500D01*
X79500Y-53500D02*
X79000Y-53000D01*
X79000Y-53000D02*
X77500Y-53000D01*
X71000Y-68500D02*
X72500Y-67000D01*
X72500Y-67000D02*
X73000Y-67000D01*
X63000Y-53500D02*
X62500Y-53000D01*
X62500Y-53000D02*
X61000Y-53000D01*
X68000Y-53500D02*
X67500Y-53000D01*
X67500Y-53000D02*
X66000Y-53000D01*
X66000Y-60000D02*
X68000Y-62000D01*
X68000Y-62000D02*
X72000Y-62000D01*
X72000Y-62000D02*
X72000Y-62500D01*
X72000Y-62500D02*
X72500Y-63000D01*
X72500Y-63000D02*
X72400Y-63000D01*
X71500Y-53000D02*
X72000Y-53500D01*
X72000Y-53500D02*
X73500Y-53500D01*
X85000Y-53500D02*
X84500Y-53000D01*
X84500Y-53000D02*
X83000Y-53000D01*
X83000Y-84500D02*
X84500Y-83000D01*
X84500Y-83000D02*
X84500Y-82500D01*
X84500Y-82500D02*
X85000Y-82000D01*
X77000Y-89500D02*
X80000Y-89500D01*
X72500Y-60500D02*
X68500Y-56500D01*
X68500Y-56500D02*
X65500Y-56500D01*
X65500Y-56500D02*
X65000Y-57000D01*
X65000Y-57000D02*
X61000Y-57000D01*
X88909Y-74000D02*
X89000Y-74000D01*
X89000Y-74000D02*
X87000Y-76000D01*
X87000Y-76000D02*
X85500Y-76000D01*
X85500Y-76000D02*
X85562Y-75968D01*
X85562Y-75968D02*
X85500Y-76000D01*
X85500Y-76000D02*
X83500Y-74000D01*
X83500Y-74000D02*
X82000Y-74000D01*
X85562Y-75968D02*
X85500Y-76000D01*
X85500Y-76000D02*
X85562Y-75968D01*
X66000Y-57000D02*
X70500Y-61500D01*
X70500Y-61500D02*
X72500Y-61500D01*
X72500Y-61500D02*
X73000Y-62000D01*
X73000Y-62000D02*
X74000Y-62000D01*
X74000Y-62000D02*
X74000Y-62500D01*
X74000Y-62500D02*
X74500Y-63000D01*
X74500Y-63000D02*
X74400Y-63000D01*
X75500Y-89500D02*
X77000Y-91000D01*
X77000Y-91000D02*
X78500Y-91000D01*
X78500Y-91000D02*
X78500Y-91500D01*
X78500Y-91500D02*
X79500Y-92500D01*
X79500Y-92500D02*
X79531Y-92562D01*
X74500Y-84500D02*
X78000Y-84500D01*
X78000Y-84500D02*
X79500Y-83000D01*
X79500Y-83000D02*
X82500Y-83000D01*
X82500Y-83000D02*
X82500Y-82500D01*
X82500Y-82500D02*
X83000Y-82000D01*
X70500Y-84000D02*
X71500Y-85000D01*
X71500Y-85000D02*
X78500Y-85000D01*
X78500Y-85000D02*
X79500Y-84000D01*
X79500Y-84000D02*
X80500Y-84000D01*
X77000Y-76500D02*
X80000Y-73500D01*
X80000Y-73500D02*
X85000Y-73500D01*
X85000Y-73500D02*
X86500Y-72000D01*
X86500Y-72000D02*
X87500Y-72000D01*
X87500Y-72000D02*
X87334Y-72031D01*
X76000Y-82000D02*
X76000Y-81500D01*
X76000Y-81500D02*
X71500Y-77000D01*
X71500Y-77000D02*
X60500Y-77000D01*
X60500Y-77000D02*
X60000Y-76500D01*
X60000Y-76500D02*
X58000Y-76500D01*
X58000Y-76500D02*
X58165Y-76468D01*
X76000Y-82000D02*
X76000Y-82500D01*
X76000Y-82500D02*
X77500Y-84000D01*
X83468Y-94334D02*
X83500Y-94500D01*
X83500Y-94500D02*
X89500Y-94500D01*
X89500Y-94500D02*
X89468Y-94334D01*
X77968Y-94334D02*
X78000Y-94500D01*
X78000Y-94500D02*
X83500Y-94500D01*
X83500Y-94500D02*
X83468Y-94334D01*
X77968Y-94334D02*
X78000Y-94500D01*
X78000Y-94500D02*
X72500Y-94500D01*
X72500Y-94500D02*
X72468Y-94334D01*
X72468Y-94334D02*
X72500Y-94500D01*
X72500Y-94500D02*
X67000Y-94500D01*
X67000Y-94500D02*
X66968Y-94334D01*
X83468Y-94334D02*
X83500Y-94500D01*
X72468Y-94334D02*
X72500Y-94500D01*
X77968Y-94334D02*
X78000Y-94500D01*
X72500Y-94500D02*
X72468Y-94334D01*
X77968Y-94334D02*
X78000Y-94500D01*
X83500Y-94500D02*
X83468Y-94334D01*
X56590Y-63000D02*
X56500Y-63000D01*
X56500Y-63000D02*
X58500Y-61000D01*
X58500Y-61000D02*
X60000Y-61000D01*
X60000Y-61000D02*
X59937Y-61031D01*
X71500Y-57000D02*
X73000Y-58500D01*
M02*
